<?xml version="1.0" encoding="utf-8"?>
<!-- Generator: Adobe Illustrator 24.0.1, SVG Export Plug-In . SVG Version: 6.00 Build 0)  -->
<svg version="1.1" id="Camada_1" xmlns="http://www.w3.org/2000/svg" xmlns:xlink="http://www.w3.org/1999/xlink" x="0px" y="0px"
	 viewBox="0 0 566.9 566.9" style="enable-background:new 0 0 566.9 566.9;" xml:space="preserve">
<style type="text/css">
	.st0{fill:#FFFFFF;}
	.st1{fill:#010202;}
</style>
<g>
	<polygon class="st0" points="562.4,283.4 560,285.9 281.2,566.9 278.8,564.5 0.1,283.4 2.6,281 281.3,0 	"/>
	<path class="st1" d="M302.5,144.1L302.5,144.1c-29.4-1-28.5,28.3-27.4,38.5v-0.1c0,0,0.3,4.2-0.4,5.9c0.7,0.1,1.3,0.2,2,0.3
		c0.5,0.1,1,0.1,1.5,0.2c0.4,0,0.8,0.1,1.1,0.1c0.2,0,0.3,0,0.5,0c0.7,0.1,1.3,0.1,1.9,0.2c0.8,0.1,1.6,0.1,2.4,0.2c0,0,0.1,0,0.1,0
		c0,0,0.1,0,0.1,0.1c4.4,0,8-0.2,10.4-0.5c3-0.3,4.2-0.6,5.3-0.9c3.4-1.1,3.6-2.1,5.5-2.3c2.8-0.2,3.2,2,7.8,3.3
		c1.1,0.3,3,0.5,6.9,0.8c2.7,0.2,5,0.4,6.6,0.5c0,0,0,0,0.1-0.1c0,0,0,0,0.1,0c0,0,0.1,0,0.1,0c3.1-1,6.3-2,9.4-3
		C346.5,140.1,304.1,143.9,302.5,144.1z M281.3,0L2.6,281l-2.4,2.4l278.6,281l2.4,2.4l278.8-281l2.4-2.4L281.3,0z M441.3,395.6
		c-0.1-4.8-0.2-11.3-0.2-14c0-1.9-0.1-3.8-0.2-5.6c-0.1-2.2-0.2-4.3-0.3-6.4c-5-100.5-41.5-117.4-41.5-117.4
		c-12.5-1.8-44.5-26.4-59.9-28.8c-0.3,0-0.6,0.1-1,0.1c-0.3,0-0.5,0-0.8-0.1c-1.5,0.1-3.1,0.1-4.6,0.2c-1.4-1.5-2.4-2.6-3.1-3.4
		c-0.5-0.6-0.8-1.3-0.8-2l-0.1-1.8v-1l0.1-1c0.1-0.8,0-0.6,0.3-1.3c0,0,0,0,0.1,0V213c0-0.1,0.1-0.2,0.1-0.3c0-0.1,0-0.2,0-0.2
		l1-0.5c0.9-0.3,2.5-0.8,3.3-1.2c1.2-0.6,3.9-5.7,3.9-5.7s3-5.9,3.5-10.5c0.4-4.4-3.2-6.4-4.6-6.6c-0.1,0-0.2,0-0.2-0.1
		c0,0,0-0.1,0-0.1c0-0.2,0.1-0.3,0.1-0.5c9.9-47.2-32.4-43.4-34-43.2h-0.1c-29.3-1-28.4,28.3-27.3,38.5v-0.1c0,0,0.3,4.2-0.4,5.9
		c0,0.2-0.1,0.3-0.2,0.4c-0.1,0.2-0.2,0.3-0.4,0.3c-1.4,0.2-5,2-4.7,6.5c0.4,4.4,3.3,10.5,3.3,10.5s2.6,5.2,3.8,5.8
		c0.7,0.3,1.6,0.7,2.2,0.9l1,4.1l2,9.7c-1.7,0-3.4,0.1-5,0.1c-0.5,0-0.9-0.1-1.2-0.3c-5.6,4.8-23.5,19-47.7,27.8
		c-29.5,10.7-40.2,54.9-40.2,54.9l-14.7,53.5l-8.2,50.4l-0.9,5.6l-2.8,17.5L9.8,283.4L281.3,9.8l271.4,273.7L441.3,395.6z
		 M302.5,144.1L302.5,144.1c-29.4-1-28.5,28.3-27.4,38.5v-0.1c0,0,0.3,4.2-0.4,5.9c0.7,0.1,1.3,0.2,2,0.3c0.5,0.1,1,0.1,1.5,0.2
		c0.4,0,0.8,0.1,1.1,0.1c0.2,0,0.3,0,0.5,0c0.7,0.1,1.3,0.1,1.9,0.2c0.8,0.1,1.6,0.1,2.4,0.2c0,0,0.1,0,0.1,0c0,0,0.1,0,0.1,0.1
		c4.4,0,8-0.2,10.4-0.5c3-0.3,4.2-0.6,5.3-0.9c3.4-1.1,3.6-2.1,5.5-2.3c2.8-0.2,3.2,2,7.8,3.3c1.1,0.3,3,0.5,6.9,0.8
		c2.7,0.2,5,0.4,6.6,0.5c0,0,0,0,0.1-0.1c0,0,0,0,0.1,0c0,0,0.1,0,0.1,0c3.1-1,6.3-2,9.4-3C346.5,140.1,304.1,143.9,302.5,144.1z"/>
	<g id="MÃSCARA">
		<g>
			<g>
				<path class="st0" d="M284.4,189.6c-0.2,1.4-0.5,2.8-0.6,4.4c-0.2,2.1-0.4,3.9-0.4,4.7c-0.2,4.5,0.8,9.5,1.3,11.8
					c1.6,1.7,4.2,4,7.9,5.9c1.8,1,6.7,3.5,12.5,3.7c10.7,0.3,18.2-7.5,19.7-9.1c1-2.4,2.1-5.8,2.5-10c0.5-4.3,0.2-8.1-0.3-10.7
					c-1.6-0.1-3.9-0.3-6.7-0.5c-3.8-0.3-5.7-0.5-6.9-0.8c-4.5-1.3-4.9-3.5-7.8-3.3c-1.9,0.2-2.1,1.2-5.5,2.3
					c-1.1,0.3-2.3,0.6-5.3,0.9C292.4,189.4,288.8,189.6,284.4,189.6z"/>
			</g>
			<g>
				<path class="st0" d="M305.3,220.4c-0.1,0-0.1,0-0.2,0c-5.9-0.2-11-2.8-12.6-3.7c-2.9-1.6-5.5-3.6-8-5.9l0,0v-0.1
					c-0.7-3.1-1.5-7.7-1.3-11.9c0-1,0.2-2.8,0.4-4.7c0.2-1.5,0.4-2.9,0.6-4.4v-0.2h0.2c3.5,0.1,7.1-0.1,10.5-0.5
					c3-0.3,4.1-0.6,5.2-0.9c1.7-0.5,2.5-1,3.2-1.5c0.7-0.4,1.3-0.8,2.3-0.8c1.6-0.1,2.5,0.5,3.6,1.2c1,0.6,2.2,1.4,4.2,2.1
					c1,0.3,2.8,0.5,6.8,0.8c2.2,0.2,4.4,0.4,6.7,0.5h0.2v0.2c0.6,3.5,0.7,7.2,0.3,10.8c-0.4,3.4-1.2,6.9-2.5,10.1v0.1
					C322.8,213.5,315.3,220.7,305.3,220.4z M284.9,210.5c2.3,2.3,4.9,4.3,7.8,5.8c1.6,0.9,6.6,3.5,12.4,3.7c0.1,0,0.1,0,0.2,0
					c9.9,0.2,17.2-6.8,19.3-9c1.3-3.1,2.1-6.5,2.5-9.9c0.4-3.5,0.3-7.1-0.3-10.5c-2.1-0.1-4.3-0.3-6.5-0.5c-3.9-0.3-5.8-0.5-6.9-0.8
					c-2.1-0.6-3.4-1.5-4.3-2.1c-1.1-0.7-1.9-1.3-3.3-1.1c-0.9,0.1-1.4,0.4-2.1,0.8c-0.7,0.4-1.6,1-3.3,1.5c-1.1,0.3-2.3,0.6-5.3,0.9
					c-3.3,0.4-6.9,0.5-10.4,0.5c-0.2,1.4-0.4,2.8-0.6,4.2c-0.2,2-0.4,3.8-0.4,4.7C283.4,202.9,284.2,207.3,284.9,210.5z"/>
			</g>
		</g>
		<g>
			<g>
				<path class="st1" d="M305.4,200.2c-7.4-0.2-14.7-0.6-22.1-1.2v-0.4c7.4,0.6,14.8,1.1,22.3,1.2c7.3,0.2,14.6,0.1,21.8-0.3v0.4
					c-7.3,0.3-14.6,0.4-21.9,0.3C305.6,200.2,305.5,200.2,305.4,200.2z"/>
			</g>
		</g>
		<g>
			<g>
				<path class="st1" d="M305.1,205.9c-7.3-0.2-14.6-1.1-21.7-2.7l0.1-0.4c7.1,1.6,14.3,2.5,21.6,2.7c0.1,0,0.2,0,0.3,0
					c7.2,0.1,14.3-0.4,21.4-1.7l0.1,0.4c-7.1,1.3-14.3,1.9-21.5,1.7C305.3,205.9,305.2,205.9,305.1,205.9z"/>
			</g>
		</g>
		<g>
			<g>
				<path class="st1" d="M325.7,208.3c-4.4,1.6-11.7,3.6-20.9,3.4c-9.3-0.2-16.4-2.6-20.8-4.3h0.6c6.5,2.6,13.2,4,20.2,4.1l0,0
					c7,0.1,13.8-0.9,20.3-3.2H325.7z"/>
			</g>
			<g>
				<path class="st1" d="M325.8,208.5c-6.8,2.4-13.8,3.6-21,3.5l0,0c-7.2-0.2-14.2-1.6-20.9-4.4l0.1-0.2l0.1-0.2
					c0.2,0.1,0.4,0.1,0.5,0.2c6.5,2.6,13.2,4,20.2,4.1l0,0c7,0.1,13.8-0.9,20.3-3.2c0.2-0.1,0.4-0.1,0.5-0.2l0.1,0.2L325.8,208.5z"
					/>
			</g>
		</g>
	</g>
	<g>
		<path class="st1" d="M281.3,537.1L29.7,283.5L281.3,29.8l251.5,253.6L281.3,537.1z M36.1,283.5l245,247.1l245-247.1L281.3,36.4
			L36.1,283.5z"/>
	</g>
	<g>
		<path class="st0" d="M327.1,190.8c3.2-1,6.5-2.1,9.7-3.1c0.2-0.1,0.1-0.5-0.1-0.4c-3.2,1-6.5,2.1-9.7,3.1
			C326.7,190.5,326.8,190.9,327.1,190.8L327.1,190.8z"/>
	</g>
	<g>
		<path class="st0" d="M284.2,189.5c-3.4-0.2-6.9-0.6-10.2-1.2c-0.2,0-0.3,0.3-0.1,0.4c3.4,0.7,6.9,1.1,10.3,1.2
			C284.5,189.9,284.5,189.5,284.2,189.5L284.2,189.5z"/>
	</g>
</g>
</svg>
