<?xml version="1.0" encoding="utf-8"?>
<!-- Generator: Adobe Illustrator 24.0.1, SVG Export Plug-In . SVG Version: 6.00 Build 0)  -->
<svg version="1.1" id="Camada_1" xmlns="http://www.w3.org/2000/svg" xmlns:xlink="http://www.w3.org/1999/xlink" x="0px" y="0px"
	 viewBox="0 0 566.9 566.9" style="enable-background:new 0 0 566.9 566.9;" xml:space="preserve">
<style type="text/css">
	.st0{fill:#010202;}
	.st1{fill:#FFFFFF;}
</style>
<g>
	<path class="st0" d="M283.5,0L7,278.8l-2.4,2.4L281,560l2.4,2.4L560,283.6l2.4-2.4L283.5,0z M442.3,392.5
		c-0.1-4.8-0.2-11.2-0.2-13.9c-2.6-110.3-41.6-128.3-41.6-128.3c-12.4-1.8-44.1-26.2-59.4-28.6c-0.3,0-0.6,0.1-1,0.1
		c-0.3,0-0.5,0-0.8-0.1c-1.5,0.1-3.1,0.1-4.6,0.2c-1.4-1.5-2.4-2.6-3.1-3.4c-0.5-0.6-0.8-1.3-0.8-2l-0.1-1.8c0-0.1,0-0.8,0-0.9
		c0,0,0-0.1,0-0.1c0,0,0.1-1,0.1-1c0.1-0.8,0-0.6,0.3-1.3c0,0,0,0,0.1,0c0,0,0-0.1,0-0.1c0-0.1,0.1-0.2,0.1-0.3c0-0.1,0-0.2,0-0.2
		l1-0.5c0.9-0.3,2.5-0.8,3.3-1.2c1.2-0.6,3.9-5.7,3.9-5.7s3-5.9,3.5-10.4c0.4-4.4-3.2-6.3-4.6-6.5c-0.1,0-0.2,0-0.2-0.1
		c10.3-47.4-32-43.6-33.6-43.4c0,0-0.1,0-0.1,0c-29.1-1-28.2,28.1-27.1,38.2l0-0.1c0,0,0.4,6.3-1,6.5c-1.4,0.2-5,2-4.7,6.5
		c0.4,4.4,3.3,10.4,3.3,10.4s2.6,5.2,3.8,5.8c0.7,0.3,1.6,0.7,2.2,0.9l1,4.1l2,9.6c-1.7,0-3.4,0.1-5,0.1c-0.5,0-0.9-0.1-1.2-0.3
		c-5.6,4.8-23.3,18.9-47.3,27.6c-29.3,10.6-39.9,54.5-39.9,54.5l-14.6,53.1l-11.8,72.8L14.2,281.2L283.5,9.7l269.3,271.5
		L442.3,392.5z"/>
	<g id="MÃSCARA">
		<g>
			<g>
				<path class="st1" d="M286.6,188.1c-0.2,1.4-0.5,2.8-0.6,4.4c-0.2,2.1-0.4,3.9-0.4,4.7c-0.2,4.5,0.8,9.4,1.3,11.7
					c1.6,1.7,4.2,4,7.8,5.9c1.8,1,6.6,3.5,12.4,3.7c10.6,0.3,18.1-7.4,19.5-9c1-2.4,2.1-5.8,2.5-9.9c0.5-4.3,0.2-8-0.3-10.6
					c-1.6-0.1-3.9-0.3-6.6-0.5c-3.8-0.3-5.7-0.5-6.8-0.8c-4.5-1.3-4.9-3.5-7.7-3.3c-1.9,0.2-2.1,1.2-5.5,2.3
					c-1.1,0.3-2.3,0.6-5.3,0.9C294.5,187.9,291,188.1,286.6,188.1z"/>
			</g>
			<g>
				<path class="st1" d="M307.3,218.7c-0.1,0-0.1,0-0.2,0c-5.9-0.2-10.9-2.8-12.5-3.7c-2.9-1.6-5.5-3.6-7.9-5.9l0,0l0-0.1
					c-0.7-3.1-1.5-7.6-1.3-11.8c0-1,0.2-2.8,0.4-4.7c0.2-1.5,0.4-2.9,0.6-4.4l0-0.2l0.2,0c3.5,0.1,7-0.1,10.4-0.5
					c3-0.3,4.1-0.6,5.2-0.9c1.7-0.5,2.5-1,3.2-1.5c0.7-0.4,1.3-0.8,2.3-0.8c1.6-0.1,2.5,0.5,3.6,1.2c1,0.6,2.2,1.4,4.2,2.1
					c1,0.3,2.8,0.5,6.7,0.8c2.2,0.2,4.4,0.4,6.6,0.5l0.2,0l0,0.2c0.6,3.5,0.7,7.1,0.3,10.7c-0.4,3.4-1.2,6.8-2.5,10l0,0.1
					C324.7,211.8,317.3,218.9,307.3,218.7z M287.1,208.8c2.3,2.3,4.9,4.3,7.7,5.8c1.6,0.9,6.5,3.5,12.3,3.7c0.1,0,0.1,0,0.2,0
					c9.8,0.2,17.1-6.7,19.1-8.9c1.3-3.1,2.1-6.4,2.5-9.8c0.4-3.5,0.3-7-0.3-10.4c-2.1-0.1-4.3-0.3-6.4-0.5c-3.9-0.3-5.8-0.5-6.8-0.8
					c-2.1-0.6-3.4-1.5-4.3-2.1c-1.1-0.7-1.9-1.3-3.3-1.1c-0.9,0.1-1.4,0.4-2.1,0.8c-0.7,0.4-1.6,1-3.3,1.5c-1.1,0.3-2.3,0.6-5.3,0.9
					c-3.3,0.4-6.8,0.5-10.3,0.5c-0.2,1.4-0.4,2.8-0.6,4.2c-0.2,2-0.4,3.8-0.4,4.7C285.6,201.3,286.4,205.7,287.1,208.8z"/>
			</g>
		</g>
		<g>
			<g>
				<path class="st0" d="M307.4,198.6c-7.3-0.2-14.6-0.6-21.9-1.2l0-0.4c7.3,0.6,14.7,1.1,22.1,1.2c7.2,0.2,14.5,0.1,21.6-0.3l0,0.4
					c-7.2,0.3-14.5,0.4-21.7,0.3C307.6,198.6,307.5,198.6,307.4,198.6z"/>
			</g>
		</g>
		<g>
			<g>
				<path class="st0" d="M307.1,204.3c-7.2-0.2-14.5-1.1-21.5-2.7l0.1-0.4c7,1.6,14.2,2.5,21.4,2.7c0.1,0,0.2,0,0.3,0
					c7.1,0.1,14.2-0.4,21.2-1.7l0.1,0.4c-7,1.3-14.2,1.9-21.3,1.7C307.3,204.3,307.2,204.3,307.1,204.3z"/>
			</g>
		</g>
		<g>
			<g>
				<path class="st0" d="M327.6,206.6c-4.4,1.6-11.6,3.6-20.7,3.4c-9.2-0.2-16.3-2.6-20.6-4.3l0.6,0c6.4,2.6,13.1,4,20,4.1l0,0
					c6.9,0.1,13.7-0.9,20.1-3.2L327.6,206.6z"/>
			</g>
			<g>
				<path class="st0" d="M327.7,206.8c-6.7,2.4-13.7,3.6-20.8,3.5l0,0c-7.1-0.2-14.1-1.6-20.7-4.4l0.1-0.2l0.1-0.2
					c0.2,0.1,0.4,0.1,0.5,0.2c6.4,2.6,13.1,4,20,4.1l0,0c6.9,0.1,13.7-0.9,20.1-3.2c0.2-0.1,0.4-0.1,0.5-0.2l0.1,0.2L327.7,206.8z"
					/>
			</g>
		</g>
	</g>
	<g>
		<path class="st0" d="M283.5,532.8L33.9,281.2L283.5,29.6L533,281.2L283.5,532.8z M40.3,281.2l243.1,245.1l243.1-245.1L283.5,36.1
			L40.3,281.2z"/>
	</g>
	<g>
		<path class="st1" d="M329,189.3c3.2-1,6.4-2.1,9.6-3.1c0.2-0.1,0.1-0.5-0.1-0.4c-3.2,1-6.4,2.1-9.6,3.1
			C328.6,189,328.7,189.4,329,189.3L329,189.3z"/>
	</g>
	<g>
		<path class="st1" d="M286.4,188c-3.4-0.2-6.8-0.6-10.1-1.2c-0.2,0-0.3,0.3-0.1,0.4c3.4,0.7,6.8,1.1,10.2,1.2
			C286.7,188.4,286.7,188,286.4,188L286.4,188z"/>
	</g>
</g>
</svg>
